# xmcd
#
# Track frame offsets:
#	150
#	33595
#	65592
#	76975
#	78057
#	96165
#	115332
#	116517
#	128247
#	144722
#	158185
#	159447
#	190305
#	209277
#	211282
#	223202
#	237237
#	273130
#	273922
#	288752
#
# Disc length: 3855 seconds
#
# Revision: 0
# Processed by: cddbd v1.5.2PL0 Copyright (c) Steve Scherf et al.
# Submitted via: EasyCDDAExtractor 2010.6.0.0
#
DISCID=220f0d14
DTITLE=Various Artist - The Last Time I Committed Suicide
DYEAR=1997
DGENRE=
TTITLE0=Charles Mingus - Better Get It in Your Soul
TTITLE1=Max Roach Quartet - Straight No Chaser
TTITLE2=Miles Davis - Move
TTITLE3=sound bite - It's a Metaphor
TTITLE4=Dianne Reeves - Sugar Blues
TTITLE5=Charlie Parker and Dizzy Gillespie - Shaw Nuff
TTITLE6=sound bite - Right Back Where I Started
TTITLE7=Ella Fitzgerald - A-Tisket, A-Tasket
TTITLE8=Thelonious Monk - Sixteen
TTITLE9=Art Blakey And The Jazz Messengers - The Thin Man
TTITLE10=sound bite - Woody Wagon
TTITLE11=Javon Jackson featuring Cassandra Wilson - Country Girl
TTITLE12=Dianne Reeves - He May Be Your Man
TTITLE13=sound bite - The Wild Stuff
TTITLE14=The Andrews Sisters - Heartbreaker
TTITLE15=Jacky Terrasson - Budism
TTITLE16=Red Fish Blue Fish - The Suicide Suite
TTITLE17=sound bite - Carry On, My Brother
TTITLE18=Pet - Ride My Heart
TTITLE19=sound bite - Who Is This?
EXTD=
EXTT0=
EXTT1=
EXTT2=
EXTT3=
EXTT4=
EXTT5=
EXTT6=
EXTT7=
EXTT8=
EXTT9=
EXTT10=
EXTT11=
EXTT12=
EXTT13=
EXTT14=
EXTT15=
EXTT16=
EXTT17=
EXTT18=
EXTT19=
PLAYORDER=
